<svg xmlns="http://www.w3.org/2000/svg" width="512" height="512" xml:space="preserve"><circle fill="#7F499C" cx="256" cy="256" r="256"/><path opacity=".1" d="m507.313 304.907-94.64-94.099-9.561-6.436-40.671-39.892-49.775 1.187L271.334 215l-67-52.333-97.508 143.494 109.439 108.907L226 459.5l12.935 18.225 33.837 33.714c117.106-7.577 212.746-93.879 234.541-206.532z"/><path fill="#A5A09B" d="M167.166 266.397c18.424 33.429 31.343 69.321 39.999 106.441 6.093 26.133 9.587 52.773 15.402 78.95 5.601 25.211 32.101 40.044 54.957 33.335 13.869-4.071 27.239-12.358 37.645-22.502 5.262-5.127 7.431-10.309 7.502-17.539.08-8.063-1.329-16.17-2.45-24.13-3.545-25.197-6.086-50.362-3.919-75.818 3.209-37.683 16.802-73.431 37.666-104.835 1.169-1.758-1.657-3.39-2.815-1.646-20.039 30.162-33.217 64.086-37.465 100.102-3.061 25.945-.96 51.896 2.628 77.657 1.197 8.599 2.673 17.228 3.043 25.915.124 2.885.109 5.832-.492 8.668-.753 3.551-3.045 6.286-5.524 8.842-10.496 10.813-27.893 11.114-42.033 15.818-8.993 2.992-10.191 7.128-19.308 2.845-6.308-2.966-3.89-1.344-14.333-7.833-8.182-5.083-12.119-19.856-14.002-29.251-5.622-28.037-9.684-56.283-16.954-83.986-8.464-32.253-20.625-63.463-36.728-92.679-1.017-1.843-3.834-.198-2.819 1.646z"/><path fill="#EFB742" d="M254.815 223.707c36.362 0 67.854 14.614 83.359 35.946 6.545-8.999 10.257-19.184 10.257-29.994 0-36.415-41.91-65.94-93.616-65.94-51.698 0-93.615 29.525-93.615 65.94 0 10.81 3.719 20.995 10.257 29.994 15.504-21.332 47.001-35.946 83.358-35.946z"/><path fill="#D8A63B" d="M208.867 200.955h120.966v28.953H208.867z"/><path fill="#D8BD6F" d="M223.994 220.231h93.653v5.027h-93.653z"/><path fill="#CB7735" d="m169.457 163.719 8.101-7.228s17.471-2.735 28.392 7.228c10.933 9.963-10.276 22.493-10.276 22.493l-26.217-22.493z"/><path fill="#D8A63B" d="m102.808 211.687 47.387-47.968s41.48-8.661 58.672 8.479c-5.62 14.014-14.971 57.71-14.971 57.71l-91.088-18.221z"/><path fill="#CB7735" d="M141.117 193.661s35.548-27.129 49.426-23.846c33.152 7.828 62.013 73.624 47.452 87.925-12.476 12.266-34.852 15.901-57.227 11.199-28.119-5.899-39.651-75.278-39.651-75.278z"/><circle fill="#EFB742" cx="151.679" cy="254.509" r="68.297"/><circle fill="#D2A239" cx="150.198" cy="255.693" r="58.669"/><path fill="#7772B4" d="M194.938 231.795c12.549 23.887 3.348 53.424-20.544 65.978-23.893 12.543-53.43 3.348-65.972-20.552-12.548-23.885-3.347-53.424 20.539-65.978 23.891-12.541 53.435-3.346 65.977 20.552z"/><path fill="#5E6AB0" d="M128.96 211.244c-23.886 12.554-33.087 42.092-20.539 65.978l86.517-45.426c-12.542-23.899-42.086-33.094-65.978-20.552z"/><path fill="#7951A0" d="M170.271 244.742c5.398 10.275 1.438 22.973-8.831 28.365-10.27 5.392-22.968 1.433-28.359-8.83-5.393-10.274-1.44-22.974 8.829-28.365 10.277-5.394 22.969-1.434 28.361 8.83z"/><path fill="#C1C5C9" d="M173.097 224.735c4.213 8.011 1.126 17.936-6.896 22.142-8.022 4.219-17.934 1.132-22.147-6.89-4.213-8.022-1.126-17.947 6.896-22.153 8.023-4.207 17.941-1.12 22.147 6.901z"/><g><path fill="#01B9AD" d="M199.725 229.283c13.928 26.528 3.711 59.334-22.818 73.271-26.536 13.935-59.337 3.712-73.272-22.817-13.929-26.529-3.718-59.336 22.817-73.271 26.537-13.938 59.337-3.713 73.273 22.817z"/><path fill="#47C6BA" d="M126.452 206.465c-26.536 13.935-36.747 46.743-22.817 73.271l96.09-50.454c-13.936-26.529-46.736-36.754-73.273-22.817z"/><path fill="#00A99E" d="M172.328 243.661c5.992 11.409 1.603 25.512-9.807 31.503-11.402 5.979-25.507 1.589-31.491-9.82-5.992-11.395-1.602-25.499 9.807-31.49 11.402-5.979 25.501-1.59 31.491 9.807z"/><path opacity=".7" fill="#F1F2F2" d="M175.467 221.441c4.676 8.908 1.25 19.914-7.658 24.603-8.908 4.676-19.92 1.238-24.603-7.659-4.675-8.92-1.244-19.926 7.665-24.602 8.909-4.688 19.921-1.249 24.596 7.658z"/></g><g><path fill="#CB7735" d="m342.544 163.719-8.1-7.228s-17.467-2.735-28.394 7.228 10.275 22.493 10.275 22.493l26.219-22.493z"/><path fill="#D8A63B" d="m409.192 211.687-47.387-47.968s-41.481-8.661-58.671 8.479c5.619 14.014 14.977 57.71 14.977 57.71l91.081-18.221z"/><path fill="#CB7735" d="M370.885 193.661s-35.549-27.129-49.427-23.846c-33.145 7.828-62.014 73.624-47.453 87.925 12.478 12.266 34.853 15.901 57.227 11.199 28.119-5.899 39.653-75.278 39.653-75.278z"/><circle fill="#EFB742" cx="360.325" cy="254.509" r="68.293"/><circle fill="#D2A239" cx="361.807" cy="255.693" r="58.672"/><path fill="#7772B4" d="M317.063 231.795c-12.549 23.887-3.349 53.424 20.545 65.978 23.891 12.543 53.43 3.348 65.978-20.552 12.543-23.885 3.348-53.424-20.544-65.978-23.893-12.541-53.438-3.346-65.979 20.552z"/><path fill="#5E6AB0" d="M383.042 211.244c23.892 12.554 33.087 42.092 20.544 65.978l-86.522-45.426c12.54-23.899 42.085-33.094 65.978-20.552z"/><path fill="#7951A0" d="M341.729 244.742c-5.393 10.275-1.438 22.973 8.831 28.365s22.967 1.433 28.359-8.83c5.391-10.274 1.439-22.974-8.831-28.365-10.268-5.394-22.967-1.434-28.359 8.83z"/><path fill="#C1C5C9" d="M338.905 224.735c-4.216 8.011-1.128 17.936 6.896 22.142 8.021 4.219 17.939 1.132 22.146-6.89 4.214-8.022 1.127-17.947-6.896-22.153-8.023-4.207-17.934-1.12-22.146 6.901z"/><g><path fill="#01B9AD" d="M314.51 283.591c16.064 25.306 49.603 32.793 74.9 16.722 25.299-16.057 32.788-49.593 16.723-74.885-16.065-25.306-49.595-32.795-74.895-16.723-25.303 16.058-32.786 49.594-16.728 74.886z"/><path fill="#47C6BA" d="M331.238 208.705c25.3-16.072 58.829-8.583 74.895 16.723l-91.623 58.163c-16.058-25.292-8.575-58.828 16.728-74.886z"/><path fill="#00A99E" d="M340.636 267.011c6.903 10.875 21.313 14.093 32.188 7.188 10.874-6.9 14.092-21.319 7.189-32.193s-21.321-14.092-32.195-7.189c-10.875 6.902-14.091 21.321-7.182 32.194z"/><path opacity=".7" fill="#F1F2F2" d="M353.785 235.025c5.391 8.492 16.643 11.005 25.142 5.613 8.497-5.392 11.004-16.658 5.612-25.149-5.392-8.492-16.651-11.005-25.143-5.613-8.497 5.393-11.004 16.658-5.611 25.149z"/></g></g><g><path fill="#CB7735" d="M283.267 188.387c0 15.225-12.34 27.559-27.559 27.559-15.226 0-27.566-12.334-27.566-27.559s12.341-27.559 27.566-27.559c15.219 0 27.559 12.335 27.559 27.559z"/><path fill="#D8A63B" d="M274.599 188.387c0 10.433-8.459 18.897-18.891 18.897-10.439 0-18.899-8.464-18.899-18.897 0-10.432 8.459-18.898 18.899-18.898 10.432 0 18.891 8.466 18.891 18.898z"/></g><path fill="#8C8076" d="M251.34 474.224s-8.909 8.203-.56 11.219c7.543 2.723 56.326 2.823 71.963-31.735-2.064-3.996-2.359-5.862-7.613-4.072-8.024 11.885-28.833 29.111-63.79 24.588z"/></svg>