<svg xmlns="http://www.w3.org/2000/svg" width="512" height="512" xml:space="preserve"><circle fill="#4D4554" cx="256" cy="256" r="256"/><path opacity=".1" d="M509.614 290.958 328.927 113.899 257 105l-47 34-15 234 126.899 130.421c98.501-26.169 173.664-109.582 187.715-212.463z"/><path fill="#FFCD54" d="M329.201 112.822c-20.382-9.264-45.729-10.243-73.201-10.243-27.472 0-52.818.978-73.201 10.242-4.592 30.1-21.729 55.472-45.252 69.292-2.228 12.979-3.417 28.054-3.417 45.599C134.129 371.518 256 409.421 256 409.421s121.87-37.903 121.87-181.708c0-17.545-1.189-32.62-3.417-45.6-23.522-13.821-40.66-39.193-45.252-69.291z"/><path fill="#FFCD54" d="M329.201 112.822c-20.382-9.264-45.729-10.243-73.201-10.243-27.472 0-52.818.978-73.201 10.242-4.592 30.1-21.729 55.472-45.252 69.292-2.228 12.979-3.417 28.054-3.417 45.599C134.129 371.518 256 409.421 256 409.421s121.87-37.903 121.87-181.708c0-17.545-1.189-32.62-3.417-45.6-23.522-13.821-40.66-39.193-45.252-69.291z"/><path fill="#FCDEA4" d="M311.236 147.959c-15.38-6.991-34.507-7.729-55.236-7.729-20.73 0-39.856.738-55.237 7.728-3.465 22.713-16.396 41.858-34.147 52.288-1.681 9.794-2.578 21.169-2.578 34.408 0 108.515 91.962 137.115 91.962 137.115s91.962-28.6 91.962-137.115c0-13.239-.897-24.614-2.579-34.408-17.75-10.43-30.682-29.574-34.147-52.287z"/><path opacity=".1" fill="#231F20" d="M377.87 227.712c0-17.545-1.189-32.62-3.417-45.6-23.522-13.821-40.66-39.192-45.252-69.291-20.382-9.264-45.729-10.243-73.201-10.243V409.42c0 .001 121.87-37.902 121.87-181.708z"/></svg>