<svg xmlns="http://www.w3.org/2000/svg" width="512" height="512" xml:space="preserve"><circle fill="#43B8C8" cx="256" cy="256" r="256"/><path opacity=".1" d="M507.463 304.127 341.5 138.25 304.334 199l-41.428-17.395-71.631-71.631L169 150l-35.333 167.667-17.36 15.681 175.512 176.146c108.582-15.206 195.316-98.513 215.644-205.367z"/><g fill="#43536C"><path d="m360.295 417.174-4.07-3.59 82.344-93.361 4.07 3.59z"/><circle cx="359.777" cy="415.087" r="13.421"/></g><path fill="#43536C" d="m241.311 290.01 1.537 5.763-115.418 30.784-1.537-5.764z"/><path fill="#43536C" d="m171.15 125.193 5.834 1.25-41.476 193.582-5.834-1.25z"/><circle fill="#E6E7E8" cx="174.034" cy="125.193" r="22.927"/><circle fill="#43536C" cx="129.358" cy="324.475" r="15.749"/><path fill="#43536C" d="m276.48 253.096-5.162-2.99 59.86-103.376 5.161 2.989z"/><path fill="#43536C" d="m442.597 320.048-5.009 3.241-107.56-166.221 5.008-3.242z"/><circle fill="#E6E7E8" cx="440.581" cy="322.086" r="22.928"/><circle fill="#43536C" cx="331.258" cy="149.582" r="15.749"/><circle fill="#E6E7E8" cx="256" cy="256" r="87.029"/><path fill="#43536C" d="M215.51 222.267c0-23.747 18.6-42.996 41.543-42.996.122 0 .243.009.365.01v75.277c-.111-.001-.233-.008-.342-.008-10.727 0-26.603 4.952-33.973-1.955 7.001-14-7.593-17.685-7.593-30.328z"/><g><path fill="#44BACA" d="M307.672 274.691c-4.937-6.15-36.859-18.283-36.859-18.283l-26.79-.116s-34.761 12.249-39.697 18.399c-6.589 8.213-9.999 40.917-9.999 40.917h123.348s-3.41-32.704-10.003-40.917z"/></g><path fill="#F3CBB0" d="m266.697 282.371-18.435-.734-4.24-5.977v-34.664h26.791v34.012z"/><path fill="#E7B18B" d="M244.022 256.292c4.805 2.53 9.595 3.955 13.507 3.955 3.849 0 8.552-1.382 13.283-3.839v-15.412h-26.79v15.296z"/><path fill="#F3CBB0" d="M294.133 219.394c0 20.218-23.344 36.606-36.604 36.606-13.266 0-36.606-16.389-36.606-36.606 0-20.217 16.389-36.606 36.606-36.606 20.215-.001 36.604 16.389 36.604 36.606z"/><path fill="#43536C" d="M254.517 177.603c-28.883 1.294-31.64 15.121-32.436 15.121a7.516 7.516 0 0 0-7.518 7.515 7.502 7.502 0 0 0 3.456 6.318c-.604 4.554.022 10.016 2.903 16.549 0 0 2.896-4.635 4.406-9.943 1.892 2.85 7.761 6.865 25.983 5.228.618-2.208 1.199-3.79 1.625-4.819.233.005.469.005.702.01v4.813h20.839l1.592-6.191 1.015 6.191 10.393-.71-2.878-7.074 4.734 6.719 2 .106c.928 2.308 1.836 3.936 2.799 3.816 1.061-5.572 5.194-45.657-39.615-43.649z"/><path fill="#E7E6E6" d="M263.653 315.608c4.021-9.744 7.159-40.601 7.159-40.601s-4.115 4.176-13.395 4.176c-9.156 0-13.397-4.176-13.397-4.176v.396s4.048 28.313 9.615 40.205h10.018z"/><g><path fill="#EEA86C" d="M368.329 321.706c0 25.229-20.453 45.678-45.682 45.678-25.224 0-45.673-20.449-45.673-45.678 0-25.228 20.449-45.681 45.673-45.681 25.229 0 45.682 20.454 45.682 45.681z"/><path fill="#F6D275" d="M360.915 321.706c0 21.13-17.131 38.257-38.268 38.257-21.129 0-38.26-17.127-38.26-38.257 0-21.133 17.131-38.267 38.26-38.267 21.137 0 38.268 17.134 38.268 38.267z"/><path fill="#EEA86C" d="M321.234 338.291c3.637 0 6.188-.581 7.65-1.738s2.192-2.628 2.192-4.427c0-1.321-.316-2.456-.954-3.403-.635-.943-1.486-1.769-2.548-2.479-1.062-.707-2.292-1.345-3.686-1.91a98.176 98.176 0 0 0-4.286-1.627 57.635 57.635 0 0 1-4.213-1.741 15.817 15.817 0 0 1-3.72-2.334 11.019 11.019 0 0 1-2.654-3.327c-.685-1.298-1.024-2.895-1.024-4.781 0-3.354.997-6.104 3.006-8.254 2.01-2.147 4.92-3.507 8.747-4.072v-8.15h5.882v7.937c2.074.096 4.015.355 5.806.779s3.208.829 4.251 1.207l-1.345 5.523c-1.134-.424-2.551-.863-4.251-1.311-1.699-.447-3.823-.676-6.374-.676-2.834 0-5.016.546-6.551 1.631s-2.307 2.62-2.307 4.603c0 1.089.229 2.013.676 2.765.447.757 1.096 1.429 1.948 2.021.852.588 1.853 1.122 3.01 1.592 1.157.474 2.444.967 3.861 1.486a97.617 97.617 0 0 1 5.244 2.196c1.649.756 3.102 1.665 4.351 2.727a12.392 12.392 0 0 1 3.017 3.789c.749 1.463 1.127 3.235 1.127 5.313 0 3.354-1.013 6.058-3.044 8.112-2.032 2.055-5.168 3.338-9.419 3.857v9.141h-5.882v-8.931c-3.304-.092-5.997-.454-8.074-1.096-2.078-.638-3.637-1.241-4.672-1.803l1.765-5.313c1.421.661 3.121 1.272 5.104 1.842 1.983.569 4.438.852 7.367.852z"/></g></svg>